<?xml version="1.0" encoding="UTF-8" standalone="no"?>
<svg
   xmlns:dc="http://purl.org/dc/elements/1.1/"
   xmlns:cc="http://creativecommons.org/ns#"
   xmlns:rdf="http://www.w3.org/1999/02/22-rdf-syntax-ns#"
   xmlns:svg="http://www.w3.org/2000/svg"
   xmlns="http://www.w3.org/2000/svg"
   xmlns:sodipodi="http://sodipodi.sourceforge.net/DTD/sodipodi-0.dtd"
   xmlns:inkscape="http://www.inkscape.org/namespaces/inkscape"
   inkscape:version="1.0 (4035a4fb49, 2020-05-01)"
   sodipodi:docname="JS.svg"
   id="svg14"
   version="1.1"
   height="144px"
   width="144px"
   viewBox="0 0 48 48">
  <metadata
     id="metadata20">
    <rdf:RDF>
      <cc:Work
         rdf:about="">
        <dc:format>image/svg+xml</dc:format>
        <dc:type
           rdf:resource="http://purl.org/dc/dcmitype/StillImage" />
      </cc:Work>
    </rdf:RDF>
  </metadata>
  <defs
     id="defs18" />
  <sodipodi:namedview
     inkscape:current-layer="svg14"
     inkscape:window-maximized="1"
     inkscape:window-y="-8"
     inkscape:window-x="-8"
     inkscape:cy="99.105882"
     inkscape:cx="72"
     inkscape:zoom="5.9027778"
     showgrid="false"
     id="namedview16"
     inkscape:window-height="1017"
     inkscape:window-width="1920"
     inkscape:pageshadow="2"
     inkscape:pageopacity="0"
     guidetolerance="10"
     gridtolerance="10"
     objecttolerance="10"
     borderopacity="1"
     bordercolor="#666666"
     pagecolor="#ffffff" />
  <g
     transform="matrix(1.260845,0,0,1.260845,-6.5211262,-6.2334042)"
     id="g28">
    <polygon
       fill="#e7a42b"
       points="25,43 11,39 8,5 42,5 38,39 "
       id="polygon2" />
    <polygon
       fill="#f2bf22"
       points="25,8 38.63,8 35.25,36.71 25,39.86 "
       id="polygon4" />
    <polygon
       fill="#faf9f8"
       points="15.79,25 16.64,12 25,12 26,14 25,16 21.03,16 20.7,21 25,21 26,23 25,25 "
       id="polygon6" />
    <polygon
       fill="#ebebeb"
       points="25,36.72 24.94,36.74 16.61,34.36 16.05,28 20.07,28 20.35,31.27 24.9,32.57 25,32.54 26,35 "
       id="polygon8" />
    <polygon
       fill="#ffffff"
       points="25,32.54 28.83,31.36 29.57,25 25,25 25,21 34.07,21 32.5,34.42 25,36.72 "
       id="polygon10" />
    <polygon
       fill="#ffffff"
       points="25,16 25,12 34.13,12 34.3,13.26 34.92,18 30.93,18 30.67,16 "
       id="polygon12" />
  </g>
</svg>
